<svg width="977" height="241" viewBox="0 0 977 241" fill="none" xmlns="http://www.w3.org/2000/svg">
<g filter="url(#filter0_d_27_260)">
<ellipse cx="834.183" cy="203.197" rx="18.9691" ry="18.6942" fill="white"/>
<path d="M852.997 203.197C852.997 213.434 844.576 221.736 834.183 221.736C823.791 221.736 815.369 213.434 815.369 203.197C815.369 192.961 823.791 184.659 834.183 184.659C844.576 184.659 852.997 192.961 852.997 203.197Z" stroke="black" stroke-opacity="0.27" stroke-width="0.310726"/>
</g>
<g filter="url(#filter1_d_27_260)">
<ellipse cx="834.183" cy="203.197" rx="18.9691" ry="18.6942" fill="white"/>
<path d="M852.997 203.197C852.997 213.434 844.576 221.736 834.183 221.736C823.791 221.736 815.369 213.434 815.369 203.197C815.369 192.961 823.791 184.659 834.183 184.659C844.576 184.659 852.997 192.961 852.997 203.197Z" stroke="black" stroke-opacity="0.27" stroke-width="0.310726"/>
</g>
<g filter="url(#filter2_d_27_260)">
<ellipse cx="955.97" cy="172.957" rx="18.9691" ry="18.6942" fill="white"/>
<path d="M974.784 172.957C974.784 183.193 966.363 191.495 955.97 191.495C945.577 191.495 937.156 183.193 937.156 172.957C937.156 162.72 945.577 154.418 955.97 154.418C966.363 154.418 974.784 162.72 974.784 172.957Z" stroke="black" stroke-opacity="0.27" stroke-width="0.310726"/>
</g>
<g filter="url(#filter3_d_27_260)">
<ellipse cx="955.97" cy="172.957" rx="18.9691" ry="18.6942" fill="white"/>
<path d="M974.784 172.957C974.784 183.193 966.363 191.495 955.97 191.495C945.577 191.495 937.156 183.193 937.156 172.957C937.156 162.72 945.577 154.418 955.97 154.418C966.363 154.418 974.784 162.72 974.784 172.957Z" stroke="black" stroke-opacity="0.27" stroke-width="0.310726"/>
</g>
<g filter="url(#filter4_d_27_260)">
<ellipse cx="950.747" cy="30.2762" rx="18.9691" ry="18.6942" fill="white"/>
<path d="M969.56 30.2762C969.56 40.5128 961.139 48.815 950.747 48.815C940.354 48.815 931.933 40.5128 931.933 30.2762C931.933 20.0396 940.354 11.7374 950.747 11.7374C961.139 11.7374 969.56 20.0396 969.56 30.2762Z" stroke="black" stroke-opacity="0.27" stroke-width="0.310726"/>
</g>
<g filter="url(#filter5_d_27_260)">
<ellipse cx="950.747" cy="30.2762" rx="18.9691" ry="18.6942" fill="white"/>
<path d="M969.56 30.2762C969.56 40.5128 961.139 48.815 950.747 48.815C940.354 48.815 931.933 40.5128 931.933 30.2762C931.933 20.0396 940.354 11.7374 950.747 11.7374C961.139 11.7374 969.56 20.0396 969.56 30.2762Z" stroke="black" stroke-opacity="0.27" stroke-width="0.310726"/>
</g>
<g filter="url(#filter6_d_27_260)">
<ellipse cx="877.07" cy="115.5" rx="18.9691" ry="18.6942" fill="white"/>
<path d="M895.884 115.5C895.884 125.736 887.463 134.039 877.07 134.039C866.677 134.039 858.256 125.736 858.256 115.5C858.256 105.263 866.677 96.961 877.07 96.961C887.463 96.961 895.884 105.263 895.884 115.5Z" stroke="black" stroke-opacity="0.27" stroke-width="0.310726"/>
</g>
<g filter="url(#filter7_d_27_260)">
<ellipse cx="877.07" cy="115.5" rx="18.9691" ry="18.6942" fill="white"/>
<path d="M895.884 115.5C895.884 125.736 887.463 134.039 877.07 134.039C866.677 134.039 858.256 125.736 858.256 115.5C858.256 105.263 866.677 96.961 877.07 96.961C887.463 96.961 895.884 105.263 895.884 115.5Z" stroke="black" stroke-opacity="0.27" stroke-width="0.310726"/>
</g>
<g filter="url(#filter8_d_27_260)">
<ellipse cx="816.314" cy="20.9293" rx="18.9691" ry="18.6942" fill="white"/>
<path d="M835.128 20.9293C835.128 31.1658 826.706 39.4681 816.314 39.4681C805.921 39.4681 797.5 31.1658 797.5 20.9293C797.5 10.6927 805.921 2.39047 816.314 2.39047C826.706 2.39047 835.128 10.6927 835.128 20.9293Z" stroke="black" stroke-opacity="0.27" stroke-width="0.310726"/>
</g>
<g filter="url(#filter9_d_27_260)">
<ellipse cx="816.314" cy="20.9293" rx="18.9691" ry="18.6942" fill="white"/>
<path d="M835.128 20.9293C835.128 31.1658 826.706 39.4681 816.314 39.4681C805.921 39.4681 797.5 31.1658 797.5 20.9293C797.5 10.6927 805.921 2.39047 816.314 2.39047C826.706 2.39047 835.128 10.6927 835.128 20.9293Z" stroke="black" stroke-opacity="0.27" stroke-width="0.310726"/>
</g>
<g filter="url(#filter10_d_27_260)">
<ellipse cx="184.483" cy="110.95" rx="18.9691" ry="18.6942" fill="white" shape-rendering="crispEdges"/>
<path d="M184.483 129.799C195.043 129.799 203.608 121.362 203.608 110.95C203.608 100.537 195.043 92.1003 184.483 92.1003C173.923 92.1003 165.359 100.537 165.359 110.95C165.359 121.362 173.923 129.799 184.483 129.799Z" stroke="black" stroke-opacity="0.1" stroke-width="0.310726" shape-rendering="crispEdges"/>
</g>
<g filter="url(#filter11_d_27_260)">
<ellipse cx="184.483" cy="110.95" rx="18.9691" ry="18.6942" fill="white" shape-rendering="crispEdges"/>
<path d="M184.483 129.799C195.043 129.799 203.608 121.362 203.608 110.95C203.608 100.537 195.043 92.1003 184.483 92.1003C173.923 92.1003 165.359 100.537 165.359 110.95C165.359 121.362 173.923 129.799 184.483 129.799Z" stroke="black" stroke-opacity="0.1" stroke-width="0.310726" shape-rendering="crispEdges"/>
</g>
<g filter="url(#filter12_d_27_260)">
<ellipse cx="20.6342" cy="146.964" rx="18.9691" ry="18.6942" fill="white"/>
<path d="M39.4479 146.964C39.4479 157.2 31.0268 165.503 20.6342 165.503C10.2415 165.503 1.82043 157.2 1.82043 146.964C1.82043 136.727 10.2415 128.425 20.6342 128.425C31.0268 128.425 39.4479 136.727 39.4479 146.964Z" stroke="black" stroke-opacity="0.14" stroke-width="0.310726"/>
</g>
<g filter="url(#filter13_d_27_260)">
<ellipse cx="20.6342" cy="146.964" rx="18.9691" ry="18.6942" fill="white"/>
<path d="M39.4479 146.964C39.4479 157.2 31.0268 165.503 20.6342 165.503C10.2415 165.503 1.82043 157.2 1.82043 146.964C1.82043 136.727 10.2415 128.425 20.6342 128.425C31.0268 128.425 39.4479 136.727 39.4479 146.964Z" stroke="black" stroke-opacity="0.14" stroke-width="0.310726"/>
</g>
<g filter="url(#filter14_f_27_260)">
<ellipse cx="20.6141" cy="146.984" rx="18.9893" ry="18.7141" fill="white"/>
<path d="M20.6141 165.853C31.1854 165.853 39.7589 157.407 39.7589 146.984C39.7589 136.56 31.1854 128.114 20.6141 128.114C10.0429 128.114 1.46929 136.56 1.46929 146.984C1.46929 157.407 10.0429 165.853 20.6141 165.853Z" stroke="#3999FA" stroke-width="0.311057" stroke-linecap="round"/>
</g>
<g filter="url(#filter15_f_27_260)">
<ellipse cx="20.6141" cy="146.984" rx="18.9893" ry="18.7141" fill="white"/>
<path d="M20.6141 165.853C31.1854 165.853 39.7589 157.407 39.7589 146.984C39.7589 136.56 31.1854 128.114 20.6141 128.114C10.0429 128.114 1.46929 136.56 1.46929 146.984C1.46929 157.407 10.0429 165.853 20.6141 165.853Z" stroke="#3999FA" stroke-width="0.311057" stroke-linecap="round"/>
</g>
<g clip-path="url(#clip0_27_260)">
<path d="M829.424 193.382L833.986 194.444C836.028 194.919 837.31 196.232 837.205 198.235L828.752 196.267L828.343 198.026L836.796 199.994C836.013 201.869 834.365 202.468 832.337 201.995L827.672 200.909L827.158 203.113L832.587 213.418L836.117 214.24L830.661 203.944L832.092 204.277C835.974 205.15 838.465 203.158 839.451 200.612L841.731 201.143L842.14 199.384L839.889 198.86C840.059 197.527 839.812 196.487 839.237 195.653L842.815 196.486L843.225 194.725L829.837 191.608L829.424 193.382Z" fill="#FF5858"/>
</g>
<g clip-path="url(#clip1_27_260)">
<path d="M829.424 193.382L833.986 194.444C836.028 194.919 837.31 196.232 837.205 198.235L828.752 196.267L828.343 198.026L836.796 199.994C836.013 201.869 834.365 202.468 832.337 201.995L827.672 200.909L827.158 203.113L832.587 213.418L836.117 214.24L830.661 203.944L832.092 204.277C835.974 205.15 838.465 203.158 839.451 200.612L841.731 201.143L842.14 199.384L839.889 198.86C840.059 197.527 839.812 196.487 839.237 195.653L842.815 196.486L843.225 194.725L829.837 191.608L829.424 193.382Z" fill="#FF5858"/>
</g>
<path d="M949.097 173.824H952.481C952.678 174.623 952.8 175.438 952.8 176.281C952.8 178.661 951.536 180.57 949.235 181.043V183.129H962.843V180.998H953.379V180.776C954.797 179.874 955.329 178.292 955.329 176.147C955.329 175.349 955.209 174.579 955.041 173.824H960.694V172.154H954.63C954.31 170.912 953.991 169.654 953.991 168.294C953.991 166.105 955.79 164.744 958.424 164.744C959.67 164.761 960.9 165.033 962.037 165.543V163.294C960.852 162.785 959.576 162.518 958.286 162.51C954.02 162.51 951.369 164.728 951.369 168.294C951.369 169.625 951.704 170.897 952.054 172.154H949.097V173.824V173.824Z" fill="#3999FA"/>
<path d="M949.097 173.824H952.481C952.678 174.623 952.8 175.438 952.8 176.281C952.8 178.661 951.536 180.57 949.235 181.043V183.129H962.843V180.998H953.379V180.776C954.797 179.874 955.329 178.292 955.329 176.147C955.329 175.349 955.209 174.579 955.041 173.824H960.694V172.154H954.63C954.31 170.912 953.991 169.654 953.991 168.294C953.991 166.105 955.79 164.744 958.424 164.744C959.67 164.761 960.9 165.033 962.037 165.543V163.294C960.852 162.785 959.576 162.518 958.286 162.51C954.02 162.51 951.369 164.728 951.369 168.294C951.369 169.625 951.704 170.897 952.054 172.154H949.097V173.824V173.824Z" fill="#3999FA"/>
<path d="M957.853 20.8262H955.902L950.747 30.2763L945.592 20.8262H943.641L948.852 30.2763H943.874V31.9946H949.888V34.5719H943.874V36.2901H949.888V39.7265H951.606V36.2901H957.62V34.5719H951.606V31.9946H957.62V30.2763H952.642L957.853 20.8262Z" fill="#09A0A0"/>
<path d="M957.853 20.8262H955.902L950.747 30.2763L945.592 20.8262H943.641L948.852 30.2763H943.874V31.9946H949.888V34.5719H943.874V36.2901H949.888V39.7265H951.606V36.2901H957.62V34.5719H951.606V31.9946H957.62V30.2763H952.642L957.853 20.8262Z" fill="#09A0A0"/>
<path d="M822.498 14.66L815.26 11.9392L811.935 20.7849L809.522 19.878L808.918 21.4863L811.33 22.3932L810.423 24.8057L808.011 23.8987L807.406 25.5071L809.819 26.414L808.005 31.239L809.613 31.8436L811.427 27.0186L818.664 29.7395L819.269 28.1312L812.031 25.4103L812.938 22.9979L818.568 25.1141C819.847 25.5935 821.265 25.5457 822.51 24.9813C823.754 24.4168 824.724 23.3817 825.206 22.103L825.509 21.2989C825.988 20.0191 825.94 18.6015 825.376 17.3569C824.811 16.1123 823.776 15.1424 822.498 14.66V14.66ZM823.598 21.4984C823.276 22.3508 822.63 23.0408 821.8 23.4171C820.97 23.7934 820.025 23.8253 819.172 23.5058L813.543 21.3895L816.264 14.1521L821.893 16.2684C822.745 16.59 823.435 17.2366 823.812 18.0663C824.188 18.896 824.22 19.8411 823.9 20.6943L823.598 21.4984Z" fill="#3999FA"/>
<path d="M822.498 14.66L815.26 11.9392L811.935 20.7849L809.522 19.878L808.918 21.4863L811.33 22.3932L810.423 24.8057L808.011 23.8987L807.406 25.5071L809.819 26.414L808.005 31.239L809.613 31.8436L811.427 27.0186L818.664 29.7395L819.269 28.1312L812.031 25.4103L812.938 22.9979L818.568 25.1141C819.847 25.5935 821.265 25.5457 822.51 24.9813C823.754 24.4168 824.724 23.3817 825.206 22.103L825.509 21.2989C825.988 20.0191 825.94 18.6015 825.376 17.3569C824.811 16.1123 823.776 15.1424 822.498 14.66V14.66ZM823.598 21.4984C823.276 22.3508 822.63 23.0408 821.8 23.4171C820.97 23.7934 820.025 23.8253 819.172 23.5058L813.543 21.3895L816.264 14.1521L821.893 16.2684C822.745 16.59 823.435 17.2366 823.812 18.0663C824.188 18.896 824.22 19.8411 823.9 20.6943L823.598 21.4984Z" fill="#3999FA"/>
<path d="M868.765 119.734C868.162 122.546 869.802 125.18 873.135 126.486L872.518 128.483L874.23 129.012L874.847 127.016C878.664 127.874 881.615 126.523 882.56 123.466C883.367 120.856 882.28 118.865 879.245 116.995L878.155 116.322L880.085 110.081C881.871 110.831 882.807 112.206 882.662 113.784L885.075 114.53C885.615 111.82 883.942 109.238 880.724 108.014L881.337 106.031L879.625 105.501L878.999 107.525C875.699 106.919 872.884 108.282 872.029 111.046C871.291 113.433 872.354 115.612 874.916 117.185L875.835 117.761L873.789 124.378C871.989 123.515 871.011 122.08 871.163 120.476L868.765 119.734V119.734ZM876.279 115.159C874.7 114.197 874.071 112.992 874.473 111.694C874.952 110.144 876.461 109.357 878.355 109.607L876.581 115.344L876.278 115.16L876.279 115.159ZM877.94 119.039C879.889 120.223 880.544 121.389 880.082 122.883C879.525 124.684 877.798 125.465 875.486 124.949L877.413 118.72L877.94 119.038L877.94 119.039Z" fill="#5B3DD1"/>
<path d="M868.765 119.734C868.162 122.546 869.802 125.18 873.135 126.486L872.518 128.483L874.23 129.012L874.847 127.016C878.664 127.874 881.615 126.523 882.56 123.466C883.367 120.856 882.28 118.865 879.245 116.995L878.155 116.322L880.085 110.081C881.871 110.831 882.807 112.206 882.662 113.784L885.075 114.53C885.615 111.82 883.942 109.238 880.724 108.014L881.337 106.031L879.625 105.501L878.999 107.525C875.699 106.919 872.884 108.282 872.029 111.046C871.291 113.433 872.354 115.612 874.916 117.185L875.835 117.761L873.789 124.378C871.989 123.515 871.011 122.08 871.163 120.476L868.765 119.734V119.734ZM876.279 115.159C874.7 114.197 874.071 112.992 874.473 111.694C874.952 110.144 876.461 109.357 878.355 109.607L876.581 115.344L876.278 115.16L876.279 115.159ZM877.94 119.039C879.889 120.223 880.544 121.389 880.082 122.883C879.525 124.684 877.798 125.465 875.486 124.949L877.413 118.72L877.94 119.038L877.94 119.039Z" fill="#5B3DD1"/>
<g filter="url(#filter16_f_27_260)">
<path d="M185.033 130.846C195.844 130.846 204.638 122.204 204.638 111.508C204.638 100.811 195.844 92.1696 185.033 92.1696C174.222 92.1696 165.428 100.811 165.428 111.508C165.428 122.204 174.222 130.846 185.033 130.846Z" stroke="#F9E129" stroke-opacity="0.15" stroke-width="2.37175" stroke-linecap="round"/>
</g>
<g filter="url(#filter17_f_27_260)">
<path d="M185.033 130.846C195.844 130.846 204.638 122.204 204.638 111.508C204.638 100.811 195.844 92.1696 185.033 92.1696C174.222 92.1696 165.428 100.811 165.428 111.508C165.428 122.204 174.222 130.846 185.033 130.846Z" stroke="#F9E129" stroke-opacity="0.15" stroke-width="2.37175" stroke-linecap="round"/>
</g>
<g filter="url(#filter18_f_27_260)">
<path d="M92.4612 53.5867C103 53.5867 111.572 45.1627 111.572 34.7357C111.572 24.3088 103 15.8848 92.4612 15.8848C81.9224 15.8848 73.35 24.3088 73.35 34.7357C73.35 45.1627 81.9224 53.5867 92.4612 53.5867Z" stroke="#FF5858" stroke-opacity="0.14" stroke-width="2.31199" stroke-linecap="round"/>
</g>
<g filter="url(#filter19_f_27_260)">
<path d="M92.4612 53.5867C103 53.5867 111.572 45.1627 111.572 34.7357C111.572 24.3088 103 15.8848 92.4612 15.8848C81.9224 15.8848 73.35 24.3088 73.35 34.7357C73.35 45.1627 81.9224 53.5867 92.4612 53.5867Z" stroke="#FF5858" stroke-opacity="0.14" stroke-width="2.31199" stroke-linecap="round"/>
</g>
<g filter="url(#filter20_f_27_260)">
<path d="M137.728 238.155C148.299 238.155 156.872 229.709 156.872 219.286C156.872 208.862 148.299 200.416 137.728 200.416C127.156 200.416 118.583 208.862 118.583 219.286C118.583 229.709 127.156 238.155 137.728 238.155Z" stroke="#9C5CFF" stroke-width="0.311057" stroke-linecap="round"/>
</g>
<g filter="url(#filter21_f_27_260)">
<path d="M137.728 238.155C148.299 238.155 156.872 229.709 156.872 219.286C156.872 208.862 148.299 200.416 137.728 200.416C127.156 200.416 118.583 208.862 118.583 219.286C118.583 229.709 127.156 238.155 137.728 238.155Z" stroke="#9C5CFF" stroke-width="0.311057" stroke-linecap="round"/>
</g>
<g filter="url(#filter22_f_27_260)">
<path d="M834.026 222.046C844.498 222.046 852.991 213.679 852.991 203.353C852.991 193.027 844.498 184.66 834.026 184.66C823.553 184.66 815.06 193.027 815.06 203.353C815.06 213.679 823.553 222.046 834.026 222.046Z" stroke="#FF5858" stroke-width="0.308143" stroke-linecap="round"/>
</g>
<g filter="url(#filter23_f_27_260)">
<path d="M834.026 222.046C844.498 222.046 852.991 213.679 852.991 203.353C852.991 193.027 844.498 184.66 834.026 184.66C823.553 184.66 815.06 193.027 815.06 203.353C815.06 213.679 823.553 222.046 834.026 222.046Z" stroke="#FF5858" stroke-width="0.308143" stroke-linecap="round"/>
</g>
<g filter="url(#filter24_f_27_260)">
<path d="M877.07 134.664C887.63 134.664 896.194 126.227 896.194 115.815C896.194 105.402 887.63 96.965 877.07 96.965C866.51 96.965 857.945 105.402 857.945 115.815C857.945 126.227 866.51 134.664 877.07 134.664Z" stroke="#5B3DD1" stroke-width="0.310726" stroke-linecap="round"/>
</g>
<g filter="url(#filter25_f_27_260)">
<path d="M877.07 134.664C887.63 134.664 896.194 126.227 896.194 115.815C896.194 105.402 887.63 96.965 877.07 96.965C866.51 96.965 857.945 105.402 857.945 115.815C857.945 126.227 866.51 134.664 877.07 134.664Z" stroke="#5B3DD1" stroke-width="0.310726" stroke-linecap="round"/>
</g>
<g filter="url(#filter26_f_27_260)">
<path d="M816.314 39.5437C826.874 39.5437 835.438 31.1066 835.438 20.6942C835.438 10.2817 826.874 1.84464 816.314 1.84464C805.754 1.84464 797.189 10.2817 797.189 20.6942C797.189 31.1066 805.754 39.5437 816.314 39.5437Z" stroke="#3999FA" stroke-width="0.310726" stroke-linecap="round"/>
</g>
<g filter="url(#filter27_f_27_260)">
<path d="M816.314 39.5437C826.874 39.5437 835.438 31.1066 835.438 20.6942C835.438 10.2817 826.874 1.84464 816.314 1.84464C805.754 1.84464 797.189 10.2817 797.189 20.6942C797.189 31.1066 805.754 39.5437 816.314 39.5437Z" stroke="#3999FA" stroke-width="0.310726" stroke-linecap="round"/>
</g>
<g filter="url(#filter28_f_27_260)">
<path d="M950.706 49.1257C961.266 49.1257 969.831 40.6886 969.831 30.2762C969.831 19.8638 961.266 11.4267 950.706 11.4267C940.146 11.4267 931.582 19.8638 931.582 30.2762C931.582 40.6886 940.146 49.1257 950.706 49.1257Z" stroke="#09A0A0" stroke-width="0.310726" stroke-linecap="round"/>
</g>
<g filter="url(#filter29_f_27_260)">
<path d="M950.706 49.1257C961.266 49.1257 969.831 40.6886 969.831 30.2762C969.831 19.8638 961.266 11.4267 950.706 11.4267C940.146 11.4267 931.582 19.8638 931.582 30.2762C931.582 40.6886 940.146 49.1257 950.706 49.1257Z" stroke="#09A0A0" stroke-width="0.310726" stroke-linecap="round"/>
</g>
<g filter="url(#filter30_f_27_260)">
<path d="M955.95 191.846C966.521 191.846 975.095 183.4 975.095 172.977C975.095 162.553 966.521 154.107 955.95 154.107C945.379 154.107 936.805 162.553 936.805 172.977C936.805 183.4 945.379 191.846 955.95 191.846Z" stroke="#3999FA" stroke-width="0.311057" stroke-linecap="round"/>
</g>
<g filter="url(#filter31_f_27_260)">
<path d="M955.95 191.846C966.521 191.846 975.095 183.4 975.095 172.977C975.095 162.553 966.521 154.107 955.95 154.107C945.379 154.107 936.805 162.553 936.805 172.977C936.805 183.4 945.379 191.846 955.95 191.846Z" stroke="#3999FA" stroke-width="0.311057" stroke-linecap="round"/>
</g>
<g filter="url(#filter32_d_27_260)">
<ellipse cx="137.748" cy="219.266" rx="18.9691" ry="18.6942" fill="white"/>
<path d="M156.562 219.266C156.562 229.503 148.141 237.805 137.748 237.805C127.355 237.805 118.934 229.503 118.934 219.266C118.934 209.029 127.355 200.727 137.748 200.727C148.141 200.727 156.562 209.029 156.562 219.266Z" stroke="black" stroke-opacity="0.17" stroke-width="0.310726"/>
</g>
<path d="M143.761 221.843C143.76 223.21 143.216 224.52 142.25 225.487C141.284 226.453 139.973 226.996 138.607 226.998H135.17V221.077L142.227 218.407V216.689L135.17 219.359V216.782L142.227 214.111V212.393L135.17 215.063V209.816H133.452V215.714L130.875 216.689V218.407L133.452 217.432V220.009L130.875 220.984V222.703L133.452 221.727V228.716H138.607C140.429 228.714 142.176 227.989 143.464 226.701C144.753 225.412 145.477 223.666 145.48 221.843H143.761Z" fill="#9C5CFF"/>
<g filter="url(#filter33_d_27_260)">
<ellipse cx="137.748" cy="219.266" rx="18.9691" ry="18.6942" fill="white"/>
<path d="M156.562 219.266C156.562 229.503 148.141 237.805 137.748 237.805C127.355 237.805 118.934 229.503 118.934 219.266C118.934 209.029 127.355 200.727 137.748 200.727C148.141 200.727 156.562 209.029 156.562 219.266Z" stroke="black" stroke-opacity="0.17" stroke-width="0.310726"/>
</g>
<path d="M143.761 221.843C143.76 223.21 143.216 224.52 142.25 225.487C141.284 226.453 139.973 226.996 138.607 226.998H135.17V221.077L142.227 218.407V216.689L135.17 219.359V216.782L142.227 214.111V212.393L135.17 215.063V209.816H133.452V215.714L130.875 216.689V218.407L133.452 217.432V220.009L130.875 220.984V222.703L133.452 221.727V228.716H138.607C140.429 228.714 142.176 227.989 143.464 226.701C144.753 225.412 145.477 223.666 145.48 221.843H143.761Z" fill="#9C5CFF"/>
<path d="M21.9452 155.35C18.8488 155.601 16.3628 153.823 15.1528 150.729L23.2414 150.074L23.1026 148.361L14.6526 149.046C14.5315 148.484 14.4473 147.915 14.4008 147.342C14.3779 147.06 14.3632 146.773 14.3536 146.484L22.8943 145.792L22.7555 144.079L14.3955 144.757C14.6629 141.591 16.1129 138.584 20.5571 138.224C23.8564 137.957 25.4085 139.251 26.9724 141.574L28.3978 140.614C26.8232 138.276 24.7666 136.159 20.4183 136.512C14.9765 136.953 12.1589 140.951 12.6882 147.481C13.1785 153.531 17.0421 157.471 22.084 157.063C26.4323 156.71 28.1212 154.291 29.2987 151.729L27.7373 151.011C26.568 153.557 25.2445 155.083 21.9452 155.35Z" fill="#3999FA"/>
<path d="M21.9452 155.35C18.8488 155.601 16.3628 153.823 15.1528 150.729L23.2414 150.074L23.1026 148.361L14.6526 149.046C14.5315 148.484 14.4473 147.915 14.4008 147.342C14.3779 147.06 14.3632 146.773 14.3536 146.484L22.8943 145.792L22.7555 144.079L14.3955 144.757C14.6629 141.591 16.1129 138.584 20.5571 138.224C23.8564 137.957 25.4085 139.251 26.9724 141.574L28.3978 140.614C26.8232 138.276 24.7666 136.159 20.4183 136.512C14.9765 136.953 12.1589 140.951 12.6882 147.481C13.1785 153.531 17.0421 157.471 22.084 157.063C26.4323 156.71 28.1212 154.291 29.2987 151.729L27.7373 151.011C26.568 153.557 25.2445 155.083 21.9452 155.35Z" fill="#3999FA"/>
<path d="M194.792 109.232V107.514H190.535L191.356 101.5H189.638L187.919 116.964L185.342 104.077H183.624L181.047 116.964L179.328 101.5H177.61L178.431 107.514H174.174V109.232H178.664L179.016 111.809H174.174V113.527H179.25L180.188 120.4H181.906L184.483 107.514L187.06 120.4H188.779L189.716 113.527H194.792V111.809H189.95L190.302 109.232H194.792Z" fill="#FFCD46"/>
<path d="M194.792 109.232V107.514H190.535L191.356 101.5H189.638L187.919 116.964L185.342 104.077H183.624L181.047 116.964L179.328 101.5H177.61L178.431 107.514H174.174V109.232H178.664L179.016 111.809H174.174V113.527H179.25L180.188 120.4H181.906L184.483 107.514L187.06 120.4H188.779L189.716 113.527H194.792V111.809H189.95L190.302 109.232H194.792Z" fill="#FFCD46"/>
<g filter="url(#filter34_d_27_260)">
<ellipse cx="92.587" cy="34.7489" rx="17.2447" ry="16.9948" fill="white"/>
<path d="M109.69 34.7489C109.69 44.055 102.035 51.6025 92.587 51.6025C83.1391 51.6025 75.4835 44.055 75.4835 34.7489C75.4835 25.4429 83.1391 17.8954 92.587 17.8954C102.035 17.8954 109.69 25.4429 109.69 34.7489Z" stroke="black" stroke-opacity="0.11" stroke-width="0.28248"/>
</g>
<g clip-path="url(#clip2_27_260)">
<path d="M93.8428 25.5455L92.6922 23.8094L83.144 30.1375L90.6226 41.4218L88.8866 42.5723L90.0372 44.3084L91.7732 43.1578L93.499 45.7619L95.2351 44.6113L93.5092 42.0073L96.9813 39.7061L95.8308 37.9701L92.3587 40.2712L90.6328 37.6672L97.577 33.0649L96.4264 31.3289L89.4823 35.9311L86.0306 30.723L93.8428 25.5455Z" fill="#FF5858"/>
</g>
<g filter="url(#filter35_d_27_260)">
<ellipse cx="92.587" cy="34.7489" rx="17.2447" ry="16.9948" fill="white"/>
<path d="M109.69 34.7489C109.69 44.055 102.035 51.6025 92.587 51.6025C83.1391 51.6025 75.4835 44.055 75.4835 34.7489C75.4835 25.4429 83.1391 17.8954 92.587 17.8954C102.035 17.8954 109.69 25.4429 109.69 34.7489Z" stroke="black" stroke-opacity="0.11" stroke-width="0.28248"/>
</g>
<g clip-path="url(#clip3_27_260)">
<path d="M93.8428 25.5455L92.6922 23.8094L83.144 30.1375L90.6226 41.4218L88.8866 42.5723L90.0372 44.3084L91.7732 43.1578L93.499 45.7619L95.2351 44.6113L93.5092 42.0073L96.9813 39.7061L95.8308 37.9701L92.3587 40.2712L90.6328 37.6672L97.577 33.0649L96.4264 31.3289L89.4823 35.9311L86.0306 30.723L93.8428 25.5455Z" fill="#FF5858"/>
</g>
<defs>
<filter id="filter0_d_27_260" x="813.971" y="184.503" width="40.4239" height="39.8742" filterUnits="userSpaceOnUse" color-interpolation-filters="sRGB">
<feFlood flood-opacity="0" result="BackgroundImageFix"/>
<feColorMatrix in="SourceAlpha" type="matrix" values="0 0 0 0 0 0 0 0 0 0 0 0 0 0 0 0 0 0 127 0" result="hardAlpha"/>
<feOffset dy="1.2429"/>
<feGaussianBlur stdDeviation="0.621452"/>
<feComposite in2="hardAlpha" operator="out"/>
<feColorMatrix type="matrix" values="0 0 0 0 0 0 0 0 0 0 0 0 0 0 0 0 0 0 0.25 0"/>
<feBlend mode="normal" in2="BackgroundImageFix" result="effect1_dropShadow_27_260"/>
<feBlend mode="normal" in="SourceGraphic" in2="effect1_dropShadow_27_260" result="shape"/>
</filter>
<filter id="filter1_d_27_260" x="813.971" y="184.503" width="40.4239" height="39.8742" filterUnits="userSpaceOnUse" color-interpolation-filters="sRGB">
<feFlood flood-opacity="0" result="BackgroundImageFix"/>
<feColorMatrix in="SourceAlpha" type="matrix" values="0 0 0 0 0 0 0 0 0 0 0 0 0 0 0 0 0 0 127 0" result="hardAlpha"/>
<feOffset dy="1.2429"/>
<feGaussianBlur stdDeviation="0.621452"/>
<feComposite in2="hardAlpha" operator="out"/>
<feColorMatrix type="matrix" values="0 0 0 0 0 0 0 0 0 0 0 0 0 0 0 0 0 0 0.25 0"/>
<feBlend mode="normal" in2="BackgroundImageFix" result="effect1_dropShadow_27_260"/>
<feBlend mode="normal" in="SourceGraphic" in2="effect1_dropShadow_27_260" result="shape"/>
</filter>
<filter id="filter2_d_27_260" x="935.758" y="154.262" width="40.4239" height="39.8742" filterUnits="userSpaceOnUse" color-interpolation-filters="sRGB">
<feFlood flood-opacity="0" result="BackgroundImageFix"/>
<feColorMatrix in="SourceAlpha" type="matrix" values="0 0 0 0 0 0 0 0 0 0 0 0 0 0 0 0 0 0 127 0" result="hardAlpha"/>
<feOffset dy="1.2429"/>
<feGaussianBlur stdDeviation="0.621452"/>
<feComposite in2="hardAlpha" operator="out"/>
<feColorMatrix type="matrix" values="0 0 0 0 0 0 0 0 0 0 0 0 0 0 0 0 0 0 0.25 0"/>
<feBlend mode="normal" in2="BackgroundImageFix" result="effect1_dropShadow_27_260"/>
<feBlend mode="normal" in="SourceGraphic" in2="effect1_dropShadow_27_260" result="shape"/>
</filter>
<filter id="filter3_d_27_260" x="935.758" y="154.262" width="40.4239" height="39.8742" filterUnits="userSpaceOnUse" color-interpolation-filters="sRGB">
<feFlood flood-opacity="0" result="BackgroundImageFix"/>
<feColorMatrix in="SourceAlpha" type="matrix" values="0 0 0 0 0 0 0 0 0 0 0 0 0 0 0 0 0 0 127 0" result="hardAlpha"/>
<feOffset dy="1.2429"/>
<feGaussianBlur stdDeviation="0.621452"/>
<feComposite in2="hardAlpha" operator="out"/>
<feColorMatrix type="matrix" values="0 0 0 0 0 0 0 0 0 0 0 0 0 0 0 0 0 0 0.25 0"/>
<feBlend mode="normal" in2="BackgroundImageFix" result="effect1_dropShadow_27_260"/>
<feBlend mode="normal" in="SourceGraphic" in2="effect1_dropShadow_27_260" result="shape"/>
</filter>
<filter id="filter4_d_27_260" x="930.535" y="11.582" width="40.4239" height="39.8742" filterUnits="userSpaceOnUse" color-interpolation-filters="sRGB">
<feFlood flood-opacity="0" result="BackgroundImageFix"/>
<feColorMatrix in="SourceAlpha" type="matrix" values="0 0 0 0 0 0 0 0 0 0 0 0 0 0 0 0 0 0 127 0" result="hardAlpha"/>
<feOffset dy="1.2429"/>
<feGaussianBlur stdDeviation="0.621452"/>
<feComposite in2="hardAlpha" operator="out"/>
<feColorMatrix type="matrix" values="0 0 0 0 0 0 0 0 0 0 0 0 0 0 0 0 0 0 0.25 0"/>
<feBlend mode="normal" in2="BackgroundImageFix" result="effect1_dropShadow_27_260"/>
<feBlend mode="normal" in="SourceGraphic" in2="effect1_dropShadow_27_260" result="shape"/>
</filter>
<filter id="filter5_d_27_260" x="930.535" y="11.582" width="40.4239" height="39.8742" filterUnits="userSpaceOnUse" color-interpolation-filters="sRGB">
<feFlood flood-opacity="0" result="BackgroundImageFix"/>
<feColorMatrix in="SourceAlpha" type="matrix" values="0 0 0 0 0 0 0 0 0 0 0 0 0 0 0 0 0 0 127 0" result="hardAlpha"/>
<feOffset dy="1.2429"/>
<feGaussianBlur stdDeviation="0.621452"/>
<feComposite in2="hardAlpha" operator="out"/>
<feColorMatrix type="matrix" values="0 0 0 0 0 0 0 0 0 0 0 0 0 0 0 0 0 0 0.25 0"/>
<feBlend mode="normal" in2="BackgroundImageFix" result="effect1_dropShadow_27_260"/>
<feBlend mode="normal" in="SourceGraphic" in2="effect1_dropShadow_27_260" result="shape"/>
</filter>
<filter id="filter6_d_27_260" x="856.858" y="96.8057" width="40.4239" height="39.8742" filterUnits="userSpaceOnUse" color-interpolation-filters="sRGB">
<feFlood flood-opacity="0" result="BackgroundImageFix"/>
<feColorMatrix in="SourceAlpha" type="matrix" values="0 0 0 0 0 0 0 0 0 0 0 0 0 0 0 0 0 0 127 0" result="hardAlpha"/>
<feOffset dy="1.2429"/>
<feGaussianBlur stdDeviation="0.621452"/>
<feComposite in2="hardAlpha" operator="out"/>
<feColorMatrix type="matrix" values="0 0 0 0 0 0 0 0 0 0 0 0 0 0 0 0 0 0 0.25 0"/>
<feBlend mode="normal" in2="BackgroundImageFix" result="effect1_dropShadow_27_260"/>
<feBlend mode="normal" in="SourceGraphic" in2="effect1_dropShadow_27_260" result="shape"/>
</filter>
<filter id="filter7_d_27_260" x="856.858" y="96.8057" width="40.4239" height="39.8742" filterUnits="userSpaceOnUse" color-interpolation-filters="sRGB">
<feFlood flood-opacity="0" result="BackgroundImageFix"/>
<feColorMatrix in="SourceAlpha" type="matrix" values="0 0 0 0 0 0 0 0 0 0 0 0 0 0 0 0 0 0 127 0" result="hardAlpha"/>
<feOffset dy="1.2429"/>
<feGaussianBlur stdDeviation="0.621452"/>
<feComposite in2="hardAlpha" operator="out"/>
<feColorMatrix type="matrix" values="0 0 0 0 0 0 0 0 0 0 0 0 0 0 0 0 0 0 0.25 0"/>
<feBlend mode="normal" in2="BackgroundImageFix" result="effect1_dropShadow_27_260"/>
<feBlend mode="normal" in="SourceGraphic" in2="effect1_dropShadow_27_260" result="shape"/>
</filter>
<filter id="filter8_d_27_260" x="796.102" y="2.23511" width="40.4239" height="39.8742" filterUnits="userSpaceOnUse" color-interpolation-filters="sRGB">
<feFlood flood-opacity="0" result="BackgroundImageFix"/>
<feColorMatrix in="SourceAlpha" type="matrix" values="0 0 0 0 0 0 0 0 0 0 0 0 0 0 0 0 0 0 127 0" result="hardAlpha"/>
<feOffset dy="1.2429"/>
<feGaussianBlur stdDeviation="0.621452"/>
<feComposite in2="hardAlpha" operator="out"/>
<feColorMatrix type="matrix" values="0 0 0 0 0 0 0 0 0 0 0 0 0 0 0 0 0 0 0.25 0"/>
<feBlend mode="normal" in2="BackgroundImageFix" result="effect1_dropShadow_27_260"/>
<feBlend mode="normal" in="SourceGraphic" in2="effect1_dropShadow_27_260" result="shape"/>
</filter>
<filter id="filter9_d_27_260" x="796.102" y="2.23511" width="40.4239" height="39.8742" filterUnits="userSpaceOnUse" color-interpolation-filters="sRGB">
<feFlood flood-opacity="0" result="BackgroundImageFix"/>
<feColorMatrix in="SourceAlpha" type="matrix" values="0 0 0 0 0 0 0 0 0 0 0 0 0 0 0 0 0 0 127 0" result="hardAlpha"/>
<feOffset dy="1.2429"/>
<feGaussianBlur stdDeviation="0.621452"/>
<feComposite in2="hardAlpha" operator="out"/>
<feColorMatrix type="matrix" values="0 0 0 0 0 0 0 0 0 0 0 0 0 0 0 0 0 0 0.25 0"/>
<feBlend mode="normal" in2="BackgroundImageFix" result="effect1_dropShadow_27_260"/>
<feBlend mode="normal" in="SourceGraphic" in2="effect1_dropShadow_27_260" result="shape"/>
</filter>
<filter id="filter10_d_27_260" x="163.96" y="91.9448" width="41.0454" height="40.4956" filterUnits="userSpaceOnUse" color-interpolation-filters="sRGB">
<feFlood flood-opacity="0" result="BackgroundImageFix"/>
<feColorMatrix in="SourceAlpha" type="matrix" values="0 0 0 0 0 0 0 0 0 0 0 0 0 0 0 0 0 0 127 0" result="hardAlpha"/>
<feOffset dy="1.2429"/>
<feGaussianBlur stdDeviation="0.621452"/>
<feComposite in2="hardAlpha" operator="out"/>
<feColorMatrix type="matrix" values="0 0 0 0 0 0 0 0 0 0 0 0 0 0 0 0 0 0 0.25 0"/>
<feBlend mode="normal" in2="BackgroundImageFix" result="effect1_dropShadow_27_260"/>
<feBlend mode="normal" in="SourceGraphic" in2="effect1_dropShadow_27_260" result="shape"/>
</filter>
<filter id="filter11_d_27_260" x="163.96" y="91.9448" width="41.0454" height="40.4956" filterUnits="userSpaceOnUse" color-interpolation-filters="sRGB">
<feFlood flood-opacity="0" result="BackgroundImageFix"/>
<feColorMatrix in="SourceAlpha" type="matrix" values="0 0 0 0 0 0 0 0 0 0 0 0 0 0 0 0 0 0 127 0" result="hardAlpha"/>
<feOffset dy="1.2429"/>
<feGaussianBlur stdDeviation="0.621452"/>
<feComposite in2="hardAlpha" operator="out"/>
<feColorMatrix type="matrix" values="0 0 0 0 0 0 0 0 0 0 0 0 0 0 0 0 0 0 0.25 0"/>
<feBlend mode="normal" in2="BackgroundImageFix" result="effect1_dropShadow_27_260"/>
<feBlend mode="normal" in="SourceGraphic" in2="effect1_dropShadow_27_260" result="shape"/>
</filter>
<filter id="filter12_d_27_260" x="0.422165" y="128.27" width="40.424" height="39.8742" filterUnits="userSpaceOnUse" color-interpolation-filters="sRGB">
<feFlood flood-opacity="0" result="BackgroundImageFix"/>
<feColorMatrix in="SourceAlpha" type="matrix" values="0 0 0 0 0 0 0 0 0 0 0 0 0 0 0 0 0 0 127 0" result="hardAlpha"/>
<feOffset dy="1.2429"/>
<feGaussianBlur stdDeviation="0.621452"/>
<feComposite in2="hardAlpha" operator="out"/>
<feColorMatrix type="matrix" values="0 0 0 0 0 0 0 0 0 0 0 0 0 0 0 0 0 0 0.25 0"/>
<feBlend mode="normal" in2="BackgroundImageFix" result="effect1_dropShadow_27_260"/>
<feBlend mode="normal" in="SourceGraphic" in2="effect1_dropShadow_27_260" result="shape"/>
</filter>
<filter id="filter13_d_27_260" x="0.422165" y="128.27" width="40.424" height="39.8742" filterUnits="userSpaceOnUse" color-interpolation-filters="sRGB">
<feFlood flood-opacity="0" result="BackgroundImageFix"/>
<feColorMatrix in="SourceAlpha" type="matrix" values="0 0 0 0 0 0 0 0 0 0 0 0 0 0 0 0 0 0 127 0" result="hardAlpha"/>
<feOffset dy="1.2429"/>
<feGaussianBlur stdDeviation="0.621452"/>
<feComposite in2="hardAlpha" operator="out"/>
<feColorMatrix type="matrix" values="0 0 0 0 0 0 0 0 0 0 0 0 0 0 0 0 0 0 0.25 0"/>
<feBlend mode="normal" in2="BackgroundImageFix" result="effect1_dropShadow_27_260"/>
<feBlend mode="normal" in="SourceGraphic" in2="effect1_dropShadow_27_260" result="shape"/>
</filter>
<filter id="filter14_f_27_260" x="0.0708464" y="126.716" width="41.0865" height="40.5361" filterUnits="userSpaceOnUse" color-interpolation-filters="sRGB">
<feFlood flood-opacity="0" result="BackgroundImageFix"/>
<feBlend mode="normal" in="SourceGraphic" in2="BackgroundImageFix" result="shape"/>
<feGaussianBlur stdDeviation="0.621452" result="effect1_foregroundBlur_27_260"/>
</filter>
<filter id="filter15_f_27_260" x="0.0708464" y="126.716" width="41.0865" height="40.5361" filterUnits="userSpaceOnUse" color-interpolation-filters="sRGB">
<feFlood flood-opacity="0" result="BackgroundImageFix"/>
<feBlend mode="normal" in="SourceGraphic" in2="BackgroundImageFix" result="shape"/>
<feGaussianBlur stdDeviation="0.621452" result="effect1_foregroundBlur_27_260"/>
</filter>
<filter id="filter16_f_27_260" x="162.999" y="89.7407" width="44.0678" height="43.5339" filterUnits="userSpaceOnUse" color-interpolation-filters="sRGB">
<feFlood flood-opacity="0" result="BackgroundImageFix"/>
<feBlend mode="normal" in="SourceGraphic" in2="BackgroundImageFix" result="shape"/>
<feGaussianBlur stdDeviation="0.621452" result="effect1_foregroundBlur_27_260"/>
</filter>
<filter id="filter17_f_27_260" x="162.999" y="89.7407" width="44.0678" height="43.5339" filterUnits="userSpaceOnUse" color-interpolation-filters="sRGB">
<feFlood flood-opacity="0" result="BackgroundImageFix"/>
<feBlend mode="normal" in="SourceGraphic" in2="BackgroundImageFix" result="shape"/>
<feGaussianBlur stdDeviation="0.621452" result="effect1_foregroundBlur_27_260"/>
</filter>
<filter id="filter18_f_27_260" x="70.9824" y="13.5172" width="42.9575" height="42.4371" filterUnits="userSpaceOnUse" color-interpolation-filters="sRGB">
<feFlood flood-opacity="0" result="BackgroundImageFix"/>
<feBlend mode="normal" in="SourceGraphic" in2="BackgroundImageFix" result="shape"/>
<feGaussianBlur stdDeviation="0.605795" result="effect1_foregroundBlur_27_260"/>
</filter>
<filter id="filter19_f_27_260" x="70.9824" y="13.5172" width="42.9575" height="42.4371" filterUnits="userSpaceOnUse" color-interpolation-filters="sRGB">
<feFlood flood-opacity="0" result="BackgroundImageFix"/>
<feBlend mode="normal" in="SourceGraphic" in2="BackgroundImageFix" result="shape"/>
<feGaussianBlur stdDeviation="0.605795" result="effect1_foregroundBlur_27_260"/>
</filter>
<filter id="filter20_f_27_260" x="117.184" y="199.018" width="41.0865" height="40.5361" filterUnits="userSpaceOnUse" color-interpolation-filters="sRGB">
<feFlood flood-opacity="0" result="BackgroundImageFix"/>
<feBlend mode="normal" in="SourceGraphic" in2="BackgroundImageFix" result="shape"/>
<feGaussianBlur stdDeviation="0.621452" result="effect1_foregroundBlur_27_260"/>
</filter>
<filter id="filter21_f_27_260" x="117.184" y="199.018" width="41.0865" height="40.5361" filterUnits="userSpaceOnUse" color-interpolation-filters="sRGB">
<feFlood flood-opacity="0" result="BackgroundImageFix"/>
<feBlend mode="normal" in="SourceGraphic" in2="BackgroundImageFix" result="shape"/>
<feGaussianBlur stdDeviation="0.621452" result="effect1_foregroundBlur_27_260"/>
</filter>
<filter id="filter22_f_27_260" x="813.663" y="183.263" width="40.7248" height="40.1797" filterUnits="userSpaceOnUse" color-interpolation-filters="sRGB">
<feFlood flood-opacity="0" result="BackgroundImageFix"/>
<feBlend mode="normal" in="SourceGraphic" in2="BackgroundImageFix" result="shape"/>
<feGaussianBlur stdDeviation="0.621452" result="effect1_foregroundBlur_27_260"/>
</filter>
<filter id="filter23_f_27_260" x="813.663" y="183.263" width="40.7248" height="40.1797" filterUnits="userSpaceOnUse" color-interpolation-filters="sRGB">
<feFlood flood-opacity="0" result="BackgroundImageFix"/>
<feBlend mode="normal" in="SourceGraphic" in2="BackgroundImageFix" result="shape"/>
<feGaussianBlur stdDeviation="0.621452" result="effect1_foregroundBlur_27_260"/>
</filter>
<filter id="filter24_f_27_260" x="856.547" y="95.5667" width="41.0454" height="40.4956" filterUnits="userSpaceOnUse" color-interpolation-filters="sRGB">
<feFlood flood-opacity="0" result="BackgroundImageFix"/>
<feBlend mode="normal" in="SourceGraphic" in2="BackgroundImageFix" result="shape"/>
<feGaussianBlur stdDeviation="0.621452" result="effect1_foregroundBlur_27_260"/>
</filter>
<filter id="filter25_f_27_260" x="856.547" y="95.5667" width="41.0454" height="40.4956" filterUnits="userSpaceOnUse" color-interpolation-filters="sRGB">
<feFlood flood-opacity="0" result="BackgroundImageFix"/>
<feBlend mode="normal" in="SourceGraphic" in2="BackgroundImageFix" result="shape"/>
<feGaussianBlur stdDeviation="0.621452" result="effect1_foregroundBlur_27_260"/>
</filter>
<filter id="filter26_f_27_260" x="795.58" y="0.235643" width="41.4667" height="40.9169" filterUnits="userSpaceOnUse" color-interpolation-filters="sRGB">
<feFlood flood-opacity="0" result="BackgroundImageFix"/>
<feBlend mode="normal" in="SourceGraphic" in2="BackgroundImageFix" result="shape"/>
<feGaussianBlur stdDeviation="0.726783" result="effect1_foregroundBlur_27_260"/>
</filter>
<filter id="filter27_f_27_260" x="795.58" y="0.235643" width="41.4667" height="40.9169" filterUnits="userSpaceOnUse" color-interpolation-filters="sRGB">
<feFlood flood-opacity="0" result="BackgroundImageFix"/>
<feBlend mode="normal" in="SourceGraphic" in2="BackgroundImageFix" result="shape"/>
<feGaussianBlur stdDeviation="0.726783" result="effect1_foregroundBlur_27_260"/>
</filter>
<filter id="filter28_f_27_260" x="930.184" y="10.0283" width="41.0454" height="40.4956" filterUnits="userSpaceOnUse" color-interpolation-filters="sRGB">
<feFlood flood-opacity="0" result="BackgroundImageFix"/>
<feBlend mode="normal" in="SourceGraphic" in2="BackgroundImageFix" result="shape"/>
<feGaussianBlur stdDeviation="0.621452" result="effect1_foregroundBlur_27_260"/>
</filter>
<filter id="filter29_f_27_260" x="930.184" y="10.0283" width="41.0454" height="40.4956" filterUnits="userSpaceOnUse" color-interpolation-filters="sRGB">
<feFlood flood-opacity="0" result="BackgroundImageFix"/>
<feBlend mode="normal" in="SourceGraphic" in2="BackgroundImageFix" result="shape"/>
<feGaussianBlur stdDeviation="0.621452" result="effect1_foregroundBlur_27_260"/>
</filter>
<filter id="filter30_f_27_260" x="935.407" y="152.709" width="41.0865" height="40.5361" filterUnits="userSpaceOnUse" color-interpolation-filters="sRGB">
<feFlood flood-opacity="0" result="BackgroundImageFix"/>
<feBlend mode="normal" in="SourceGraphic" in2="BackgroundImageFix" result="shape"/>
<feGaussianBlur stdDeviation="0.621452" result="effect1_foregroundBlur_27_260"/>
</filter>
<filter id="filter31_f_27_260" x="935.407" y="152.709" width="41.0865" height="40.5361" filterUnits="userSpaceOnUse" color-interpolation-filters="sRGB">
<feFlood flood-opacity="0" result="BackgroundImageFix"/>
<feBlend mode="normal" in="SourceGraphic" in2="BackgroundImageFix" result="shape"/>
<feGaussianBlur stdDeviation="0.621452" result="effect1_foregroundBlur_27_260"/>
</filter>
<filter id="filter32_d_27_260" x="117.536" y="200.572" width="40.424" height="39.8742" filterUnits="userSpaceOnUse" color-interpolation-filters="sRGB">
<feFlood flood-opacity="0" result="BackgroundImageFix"/>
<feColorMatrix in="SourceAlpha" type="matrix" values="0 0 0 0 0 0 0 0 0 0 0 0 0 0 0 0 0 0 127 0" result="hardAlpha"/>
<feOffset dy="1.2429"/>
<feGaussianBlur stdDeviation="0.621452"/>
<feComposite in2="hardAlpha" operator="out"/>
<feColorMatrix type="matrix" values="0 0 0 0 0 0 0 0 0 0 0 0 0 0 0 0 0 0 0.25 0"/>
<feBlend mode="normal" in2="BackgroundImageFix" result="effect1_dropShadow_27_260"/>
<feBlend mode="normal" in="SourceGraphic" in2="effect1_dropShadow_27_260" result="shape"/>
</filter>
<filter id="filter33_d_27_260" x="117.536" y="200.572" width="40.424" height="39.8742" filterUnits="userSpaceOnUse" color-interpolation-filters="sRGB">
<feFlood flood-opacity="0" result="BackgroundImageFix"/>
<feColorMatrix in="SourceAlpha" type="matrix" values="0 0 0 0 0 0 0 0 0 0 0 0 0 0 0 0 0 0 127 0" result="hardAlpha"/>
<feOffset dy="1.2429"/>
<feGaussianBlur stdDeviation="0.621452"/>
<feComposite in2="hardAlpha" operator="out"/>
<feColorMatrix type="matrix" values="0 0 0 0 0 0 0 0 0 0 0 0 0 0 0 0 0 0 0.25 0"/>
<feBlend mode="normal" in2="BackgroundImageFix" result="effect1_dropShadow_27_260"/>
<feBlend mode="normal" in="SourceGraphic" in2="effect1_dropShadow_27_260" result="shape"/>
</filter>
<filter id="filter34_d_27_260" x="74.2124" y="17.7542" width="36.7493" height="36.2493" filterUnits="userSpaceOnUse" color-interpolation-filters="sRGB">
<feFlood flood-opacity="0" result="BackgroundImageFix"/>
<feColorMatrix in="SourceAlpha" type="matrix" values="0 0 0 0 0 0 0 0 0 0 0 0 0 0 0 0 0 0 127 0" result="hardAlpha"/>
<feOffset dy="1.12992"/>
<feGaussianBlur stdDeviation="0.56496"/>
<feComposite in2="hardAlpha" operator="out"/>
<feColorMatrix type="matrix" values="0 0 0 0 0 0 0 0 0 0 0 0 0 0 0 0 0 0 0.25 0"/>
<feBlend mode="normal" in2="BackgroundImageFix" result="effect1_dropShadow_27_260"/>
<feBlend mode="normal" in="SourceGraphic" in2="effect1_dropShadow_27_260" result="shape"/>
</filter>
<filter id="filter35_d_27_260" x="74.2124" y="17.7542" width="36.7493" height="36.2493" filterUnits="userSpaceOnUse" color-interpolation-filters="sRGB">
<feFlood flood-opacity="0" result="BackgroundImageFix"/>
<feColorMatrix in="SourceAlpha" type="matrix" values="0 0 0 0 0 0 0 0 0 0 0 0 0 0 0 0 0 0 127 0" result="hardAlpha"/>
<feOffset dy="1.12992"/>
<feGaussianBlur stdDeviation="0.56496"/>
<feComposite in2="hardAlpha" operator="out"/>
<feColorMatrix type="matrix" values="0 0 0 0 0 0 0 0 0 0 0 0 0 0 0 0 0 0 0.25 0"/>
<feBlend mode="normal" in2="BackgroundImageFix" result="effect1_dropShadow_27_260"/>
<feBlend mode="normal" in="SourceGraphic" in2="effect1_dropShadow_27_260" result="shape"/>
</filter>
<clipPath id="clip0_27_260">
<rect width="27.4914" height="27.4914" fill="white" transform="translate(823.923 186.702) rotate(13.1075)"/>
</clipPath>
<clipPath id="clip1_27_260">
<rect width="27.4914" height="27.4914" fill="white" transform="translate(823.923 186.702) rotate(13.1075)"/>
</clipPath>
<clipPath id="clip2_27_260">
<rect width="24.9923" height="24.9923" fill="white" transform="translate(75.3422 31.5605) rotate(-33.5344)"/>
</clipPath>
<clipPath id="clip3_27_260">
<rect width="24.9923" height="24.9923" fill="white" transform="translate(75.3422 31.5605) rotate(-33.5344)"/>
</clipPath>
</defs>
</svg>
